<svg xmlns="http://www.w3.org/2000/svg" width="16" height="16" id="target">
  <path d="M7.492.504v1.023a6.005 6.005 0 0 0-5.474 5.477H.992v1h1.026a6.005 6.005 0 0 0 5.474 5.475v1.025h1v-1.025a6.005 6.005 0 0 0 5.475-5.475h1.025v-1h-1.025a6.005 6.005 0 0 0-5.475-5.477V.504h-1zm.5 2c2.768 0 5 2.233 5 5s-2.232 5-5 5c-2.767 0-5-2.233-5-5s2.233-5 5-5zm0 2c-1.65 0-3 1.349-3 3 0 1.65 1.35 3 3 3 1.651 0 3-1.35 3-3 0-1.651-1.349-3-3-3zm0 1c1.11 0 2 .89 2 2 0 1.11-.89 2-2 2-1.11 0-2-.89-2-2 0-1.11.89-2 2-2z" color="#000" font-family="sans-serif" font-weight="400" overflow="visible" style="line-height:normal;text-indent:0;text-align:start;text-decoration-line:none;text-decoration-style:solid;text-decoration-color:#000;text-transform:none;block-progression:tb;white-space:normal;isolation:auto;mix-blend-mode:normal;solid-color:#000;solid-opacity:1"></path>
</svg>
