<svg xmlns="http://www.w3.org/2000/svg" enable-background="new 0 0 32 32" viewBox="0 0 32 32" id="eye">
  <path d="M29.5820312,14.6806641C26.5600586,10.1782227,21.4824219,7.4902344,16,7.4902344S5.4399414,10.1782227,2.418457,14.6796875
	c-0.527832,0.784668-0.527832,1.7993164-0.0004883,2.5844727c2.9146118,4.3413086,7.7412109,6.9876709,12.9980469,7.1715698
	c0.3368835,0.0300407,0.680872,0.0353336,1.0184326,0.0045776c5.3148193-0.1383057,10.2058105-2.7941895,13.1470947-7.1761475
	C30.1098633,16.4790039,30.1098633,15.4648438,29.5820312,14.6806641z M16.8236084,22.4033203
	c-0.5798149,0.0635452-1.1652336,0.0554333-1.7445679-0.0059204C11.8565063,21.9691162,9.362793,19.267334,9.362793,16
	c0-3.5639648,2.9643555-6.4633789,6.6083984-6.4633789S22.5800781,12.4360352,22.5800781,16
	C22.5800781,19.2808228,20.0654907,21.9921875,16.8236084,22.4033203z M4.078125,16.1489258
	c-0.0732422-0.1088867-0.0732422-0.2441406,0-0.3540039c1.2086792-1.800293,2.8054199-3.2491455,4.6279907-4.3151245
	C7.8601074,12.7893677,7.362793,14.3371582,7.362793,16c0,1.6251831,0.4765015,3.1394653,1.2875366,4.4300537
	C6.8514404,19.3668823,5.274353,17.9306641,4.078125,16.1489258z M27.921875,16.1489258
	c-1.2166748,1.8122559-2.8260498,3.2693481-4.6639404,4.3369751C24.0905762,19.1834717,24.5800781,17.6484985,24.5800781,16
	c0-1.6860962-0.5098267-3.2548828-1.3777466-4.5758667c1.8617554,1.0702515,3.4906616,2.5404663,4.7200317,4.3717651
	C27.9951172,15.9042969,27.9951172,16.0395508,27.921875,16.1489258z"></path>
  <path d="M15.9711914 12.559082c-1.9233398 0-3.4882812 1.543457-3.4882812 3.440918s1.5649414 3.440918 3.4882812 3.440918c1.9238281 0 3.4887695-1.543457 3.4887695-3.440918S17.8950195 12.559082 15.9711914 12.559082zM15.9711914 17.440918c-.8208008 0-1.4882812-.6464844-1.4882812-1.440918s.6674805-1.440918 1.4882812-1.440918S17.4599609 15.2055664 17.4599609 16 16.7919922 17.440918 15.9711914 17.440918zM15.9711914 6.5419922c.5522461 0 1-.4477539 1-1V3c0-.5522461-.4477539-1-1-1s-1 .4477539-1 1v2.5419922C14.9711914 6.0942383 15.4189453 6.5419922 15.9711914 6.5419922zM15.9711914 25.4580078c-.5522461 0-1 .4477539-1 1V29c0 .5522461.4477539 1 1 1s1-.4477539 1-1v-2.5419922C16.9711914 25.9057617 16.5234375 25.4580078 15.9711914 25.4580078zM20.9638672 6.5419922c.2963867 0 .5898438-.1313477.7871094-.3823242l1.9960938-2.5419922c.3408203-.4345703.2651367-1.0629883-.1689453-1.4042969-.434082-.3408203-1.0634766-.2651367-1.4042969.1689453l-1.9960938 2.5419922c-.3408203.4345703-.2651367 1.0629883.1689453 1.4042969C20.5297852 6.472168 20.7475586 6.5419922 20.9638672 6.5419922zM10.1918945 6.159668c.1972656.2509766.4907227.3823242.7871094.3823242.2163086 0 .434082-.0698242.6171875-.2133789.4345703-.3413086.5097656-.9702148.1689453-1.4042969l-1.996582-2.5419922c-.3417969-.434082-.9702148-.5092773-1.4042969-.1689453C7.9296875 2.5546875 7.8544922 3.1835938 8.1953125 3.6176758L10.1918945 6.159668zM10.1918945 25.840332l-1.996582 2.5419922c-.3408203.434082-.265625 1.0629883.1689453 1.4042969C8.5473633 29.9301758 8.7651367 30 8.9814453 30c.2963867 0 .5898438-.1313477.7871094-.3823242l1.996582-2.5419922c.3408203-.434082.265625-1.0629883-.1689453-1.4042969C11.1621094 25.3305664 10.5332031 25.4052734 10.1918945 25.840332zM21.7509766 25.840332c-.3413086-.434082-.9697266-.5092773-1.4042969-.1689453-.434082.3413086-.5097656.9697266-.1689453 1.4042969l1.9960938 2.5419922C22.3710938 29.8686523 22.6645508 30 22.9609375 30c.2163086 0 .434082-.0698242.6171875-.2133789.434082-.3413086.5097656-.9697266.1689453-1.4042969L21.7509766 25.840332z"></path>
</svg>
