<?xml version="1.0" encoding="UTF-8"?>
<svg version="1.1" xmlns="http://www.w3.org/2000/svg" width="150" height="148">
<path d="M0 0 C49.5 0 99 0 150 0 C150 48.84 150 97.68 150 148 C100.5 148 51 148 0 148 C0 99.16 0 50.32 0 0 Z " fill="#050505" transform="translate(0,0)"/>
<path d="M0 0 C12.87 0 25.74 0 39 0 C39 48.84 39 97.68 39 148 C32.73 148 26.46 148 20 148 C20.33 147.34 20.66 146.68 21 146 C21.09825753 144.54752937 21.13502451 143.09066795 21.14044189 141.6348877 C21.14615204 140.71788589 21.15186218 139.80088409 21.15774536 138.85609436 C21.15886322 137.8471965 21.15998108 136.83829865 21.16113281 135.79882812 C21.16609772 134.73860947 21.17106262 133.67839081 21.17617798 132.58604431 C21.19082163 129.06777303 21.19760436 125.54954679 21.203125 122.03125 C21.20887348 119.59509275 21.21463124 117.15893553 21.22039795 114.72277832 C21.23091342 109.61157011 21.2367529 104.50037767 21.24023438 99.38916016 C21.24572822 92.82473101 21.26977308 86.26050835 21.29820633 79.6961441 C21.3167831 74.66399517 21.3220356 69.63189653 21.32357025 64.59971619 C21.32660722 62.17869433 21.33467058 59.75767358 21.34775543 57.33668518 C21.36471651 53.9580183 21.36296029 50.57986346 21.35644531 47.20117188 C21.3656601 46.19227402 21.37487488 45.18337616 21.3843689 44.14390564 C21.37879974 43.22690384 21.37323059 42.30990204 21.36749268 41.3651123 C21.36969252 40.16606892 21.36969252 40.16606892 21.3719368 38.94280243 C21.24919765 38.30167763 21.12645851 37.66055283 21 37 C17.56238884 34.70825923 16.07928385 34.70475953 12.01953125 34.5859375 C10.85615234 34.54726563 9.69277344 34.50859375 8.49414062 34.46875 C6.67172852 34.42234375 6.67172852 34.42234375 4.8125 34.375 C3.58595703 34.33632813 2.35941406 34.29765625 1.09570312 34.2578125 C-1.93604656 34.16343897 -4.96778841 34.07785451 -8 34 C-7.49331787 33.24847656 -6.98663574 32.49695312 -6.46459961 31.72265625 C0.18402145 21.77027611 2.41528711 13.91604536 3 2 C2.01 1.67 1.02 1.34 0 1 C0 0.67 0 0.34 0 0 Z " fill="#FDFDFD" transform="translate(111,0)"/>
<path d="M0 0 C12.87 0 25.74 0 39 0 C38.34 0.66 37.68 1.32 37 2 C35.25073893 14.67197264 40.03610111 23.90276163 47 34 C45.78884521 34.029729 45.78884521 34.029729 44.55322266 34.06005859 C40.91014125 34.15505899 37.26765314 34.26483912 33.625 34.375 C32.35398438 34.4059375 31.08296875 34.436875 29.7734375 34.46875 C28.56171875 34.50742187 27.35 34.54609375 26.1015625 34.5859375 C24.42054443 34.63306885 24.42054443 34.63306885 22.70556641 34.68115234 C19.85289588 34.73411203 19.85289588 34.73411203 18 37 C17.69958816 39.01680163 17.69958816 39.01680163 17.75276184 41.3651123 C17.74856735 42.28211411 17.74437286 43.19911591 17.74005127 44.14390564 C17.74567078 45.1528035 17.75129028 46.16170135 17.75708008 47.20117188 C17.75518173 48.26139053 17.75328339 49.32160919 17.75132751 50.41395569 C17.74761094 53.93229475 17.75833654 57.45042917 17.76953125 60.96875 C17.77072266 63.40490698 17.77117629 65.84106442 17.7709198 68.27722168 C17.77248619 73.38845689 17.78078776 78.49962221 17.79418945 83.61083984 C17.81117948 90.17519769 17.81500388 96.73947864 17.81424427 103.3038559 C17.81451571 108.33600606 17.8199927 113.36813928 17.82724571 118.40028381 C17.83043655 120.82129284 17.83240075 123.2423038 17.83313942 125.66331482 C17.83529858 129.04185278 17.84403369 132.42030786 17.85473633 135.79882812 C17.85428314 136.80772598 17.85382996 137.81662384 17.85336304 138.85609436 C17.85762802 139.77309616 17.86189301 140.69009796 17.86628723 141.6348877 C17.86796308 142.43424995 17.86963892 143.23361221 17.87136555 144.05719757 C17.87949638 146.08161378 17.87949638 146.08161378 19 148 C12.73 148 6.46 148 0 148 C0 99.16 0 50.32 0 0 Z " fill="#FDFDFD" transform="translate(0,0)"/>
<path d="M0 0 C13.86 0 27.72 0 42 0 C42 13.53 42 27.06 42 41 C28.14 41 14.28 41 0 41 C0 27.47 0 13.94 0 0 Z " fill="#F9F9F9" transform="translate(80,97)"/>
<path d="M0 0 C13.86 0 27.72 0 42 0 C42 13.53 42 27.06 42 41 C28.14 41 14.28 41 0 41 C0 27.47 0 13.94 0 0 Z " fill="#F9F9F9" transform="translate(28,97)"/>
<path d="M0 0 C13.53 0 27.06 0 41 0 C41 13.53 41 27.06 41 41 C27.47 41 13.94 41 0 41 C0 27.47 0 13.94 0 0 Z " fill="#FCFCFC" transform="translate(81,45)"/>
<path d="M0 0 C13.53 0 27.06 0 41 0 C41 13.53 41 27.06 41 41 C27.47 41 13.94 41 0 41 C0 27.47 0 13.94 0 0 Z " fill="#FCFCFC" transform="translate(28,45)"/>
<path d="M0 0 C20.13 0 40.26 0 61 0 C61 0.33 61 0.66 61 1 C59.72125 1.226875 58.4425 1.45375 57.125 1.6875 C48.66811207 3.58897008 40.95752083 7.6430923 35 14 C33.96344932 15.64418383 32.94815429 17.30330285 32 19 C31.34 19 30.68 19 30 19 C28.80859375 17.4609375 28.80859375 17.4609375 27.4375 15.375 C21.25210952 6.89260772 12.48498806 3.25148892 2.4375 1.3125 C1.633125 1.209375 0.82875 1.10625 0 1 C0 0.67 0 0.34 0 0 Z " fill="#F5F5F5" transform="translate(44,0)"/>
<path d="M0 0 C-2.58506168 9.0477159 -8.13132497 15.28622908 -16 20.265625 C-18.41345902 21.15181698 -19.61560258 20.85157051 -22 20 C-18.15523257 10.81322397 -11.04582799 0 0 0 Z " fill="#F3F3F3" transform="translate(103,12)"/>
<path d="M0 0 C6.65687444 0.62408198 12.0320536 4.63674951 16.375 9.5 C19.30731114 13.16538892 21 16.2246862 21 21 C15.01404903 20.62587806 10.56323103 16.56323103 6.48046875 12.48046875 C3.46988375 9.03330344 0 4.74854298 0 0 Z " fill="#F4F4F4" transform="translate(47,12)"/>
</svg>
