<?xml version="1.0" encoding="UTF-8"?>
<svg version="1.1" xmlns="http://www.w3.org/2000/svg" width="225" height="225">
<path d="M0 0 C74.25 0 148.5 0 225 0 C225 74.25 225 148.5 225 225 C150.75 225 76.5 225 0 225 C0 150.75 0 76.5 0 0 Z " fill="#FEFEFE" transform="translate(0,0)"/>
<path d="M0 0 C3.00934942 2.84587859 4.94490277 6.44110652 7 10 C7.44005371 10.75667969 7.88010742 11.51335938 8.33349609 12.29296875 C10.91246487 16.74511961 13.45405168 21.21658706 15.97265625 25.703125 C17.84340396 29.01644164 19.76775623 32.27308919 21.80859375 35.484375 C22.23350098 36.15831299 22.6584082 36.83225098 23.09619141 37.52661133 C23.882583 38.7620764 24.68225185 39.98923313 25.49755859 41.20581055 C27.22377957 43.93519239 28.03542333 45.56506764 27.77001953 48.82373047 C26.94847505 52.21253635 25.75634712 54.86885683 24.12890625 57.94921875 C23.26749023 59.59180664 23.26749023 59.59180664 22.38867188 61.26757812 C21.78603516 62.39615234 21.18339844 63.52472656 20.5625 64.6875 C19.96373047 65.82767578 19.36496094 66.96785156 18.74804688 68.14257812 C14.36425919 76.45361121 14.36425919 76.45361121 12 80 C11.24616662 82.78444577 11.24616662 82.78444577 12 86 C16.74293108 92.58657206 23.0731946 98.21923775 28.80078125 103.93359375 C29.71836716 104.85213638 30.63595306 105.77067902 31.5813446 106.71705627 C33.50679608 108.64396949 35.43401307 110.56909375 37.36254883 112.49291992 C39.83519715 114.95982339 42.30326319 117.43125536 44.77006245 119.904006 C47.13204714 122.27046121 49.49782089 124.63311268 51.86328125 126.99609375 C53.19290642 128.32875526 53.19290642 128.32875526 54.5493927 129.68833923 C55.36751938 130.50331375 56.18564606 131.31828827 57.02856445 132.15795898 C57.74913528 132.87773422 58.46970612 133.59750946 59.21211243 134.33909607 C61.55082677 136.51170463 62.58923169 136.96808594 65.80297852 137.21777344 C69.29024833 136.98022898 71.13000324 136.22128807 74.15234375 134.515625 C75.09400391 133.99226562 76.03566406 133.46890625 77.00585938 132.9296875 C77.97330078 132.37539062 78.94074219 131.82109375 79.9375 131.25 C80.90107422 130.71117187 81.86464844 130.17234375 82.85742188 129.6171875 C88.00254058 126.76869373 88.00254058 126.76869373 93.00439453 123.68164062 C95.9700235 121.75807888 97.67447532 120.98467716 101.24682617 121.15283203 C105.4454076 122.10053759 108.67976932 123.77497762 112.296875 126.0078125 C112.9711554 126.41152069 113.64543579 126.81522888 114.34014893 127.23117065 C116.48353239 128.51825945 118.61663674 129.82138546 120.75 131.125 C122.16603897 131.97760588 123.58270122 132.82917748 125 133.6796875 C146.79840612 146.79840612 146.79840612 146.79840612 149 149 C149.85961877 155.9052892 147.14356746 161.12430857 144.3125 167.3125 C143.65991211 168.78493164 143.65991211 168.78493164 142.99414062 170.28710938 C141.6905949 173.20512063 140.35232791 176.10431086 139 179 C138.56937256 179.94149902 138.13874512 180.88299805 137.69506836 181.85302734 C137.27491455 182.74070801 136.85476074 183.62838867 136.421875 184.54296875 C136.05288086 185.33082764 135.68388672 186.11868652 135.30371094 186.93041992 C133.04707524 190.51272344 129.73826973 192.21633254 126 194 C125.38253906 194.350625 124.76507813 194.70125 124.12890625 195.0625 C111.19932282 200.75626151 93.36027509 196.91900144 80.89208984 192.20263672 C44.54646755 177.90232173 10.40112364 148.91611863 -13 118 C-14.16789062 116.55753906 -14.16789062 116.55753906 -15.359375 115.0859375 C-34.14898266 91.74595145 -50.22980673 63.16376597 -48.32568359 32.39746094 C-47.39388598 25.53820112 -43.89685785 18.56474193 -38.72143555 13.98266602 C-36.00754319 12.0054955 -33.54024618 10.75386541 -30.4375 9.4921875 C-29.39335938 9.06292969 -28.34921875 8.63367187 -27.2734375 8.19140625 C-26.19320312 7.75699219 -25.11296875 7.32257812 -24 6.875 C-22.91976562 6.43285156 -21.83953125 5.99070312 -20.7265625 5.53515625 C-17.82118166 4.34789568 -14.91225169 3.17028982 -12 2 C-11.12988281 1.63922363 -10.25976562 1.27844727 -9.36328125 0.90673828 C-5.76550851 -0.47364684 -3.82849977 -0.7921034 0 0 Z " fill="#010101" transform="translate(62,14)"/>
</svg>
